<svg width="24" height="24" viewBox="0 0 24 24" fill="none" xmlns="http://www.w3.org/2000/svg">
<path d="M21 3H3V5H21V3Z" fill="white"/>
<path d="M21 21V3H19V21H21Z" fill="white"/>
<path d="M3 21L21 21V19L3 19V21Z" fill="white"/>
<path d="M5 21L5 3H3L3 21H5Z" fill="white"/>
<path d="M13 5H11V9H13V5Z" fill="white"/>
<path d="M13 5H11V9H13V5Z" fill="white"/>
<path d="M13 5H11V9H13V5Z" fill="white"/>
<path d="M13 5H11V9H13V5Z" fill="white"/>
<path d="M13 5H11V9H13V5Z" fill="white"/>
<path d="M13 5H11V9H13V5Z" fill="white"/>
<path d="M13 5H11V9H13V5Z" fill="white"/>
<path d="M19 13V11H15V13H19Z" fill="white"/>
<path d="M19 13V11H15V13H19Z" fill="white"/>
<path d="M19 13V11H15V13H19Z" fill="white"/>
<path d="M19 13V11H15V13H19Z" fill="white"/>
<path d="M19 13V11H15V13H19Z" fill="white"/>
<path d="M19 13V11H15V13H19Z" fill="white"/>
<path d="M19 13V11H15V13H19Z" fill="white"/>
<path d="M11 19H13V15H11V19Z" fill="white"/>
<path d="M11 19H13V15H11V19Z" fill="white"/>
<path d="M11 19H13V15H11V19Z" fill="white"/>
<path d="M11 19H13V15H11V19Z" fill="white"/>
<path d="M11 19H13V15H11V19Z" fill="white"/>
<path d="M11 19H13V15H11V19Z" fill="white"/>
<path d="M11 19H13V15H11V19Z" fill="white"/>
<path d="M5 11V13H9V11H5Z" fill="white"/>
<path d="M5 11V13H9V11H5Z" fill="white"/>
<path d="M5 11V13H9V11H5Z" fill="white"/>
<path d="M5 11V13H9V11H5Z" fill="white"/>
<path d="M5 11V13H9V11H5Z" fill="white"/>
<path d="M5 11V13H9V11H5Z" fill="white"/>
<path d="M5 11V13H9V11H5Z" fill="white"/>
<path d="M13 11H11V13H13V11Z" fill="white"/>
</svg>
