<svg width="24" height="24" viewBox="0 0 24 24" fill="none" xmlns="http://www.w3.org/2000/svg">
<rect x="3" y="3" width="18" height="2" fill="black"/>
<rect x="21" y="3" width="18" height="2" transform="rotate(90 21 3)" fill="black"/>
<rect x="21" y="21" width="18" height="2" transform="rotate(-180 21 21)" fill="black"/>
<rect x="5" y="3" width="18" height="2" transform="rotate(90 5 3)" fill="black"/>
<rect x="11" y="5" width="2" height="4" fill="black"/>
<rect x="11" y="5" width="2" height="4" fill="black"/>
<rect x="11" y="5" width="2" height="4" fill="black"/>
<rect x="11" y="5" width="2" height="4" fill="black"/>
<rect x="11" y="5" width="2" height="4" fill="black"/>
<rect x="11" y="5" width="2" height="4" fill="black"/>
<rect x="11" y="5" width="2" height="4" fill="black"/>
<rect x="19" y="11" width="2" height="4" transform="rotate(90 19 11)" fill="black"/>
<rect x="19" y="11" width="2" height="4" transform="rotate(90 19 11)" fill="black"/>
<rect x="19" y="11" width="2" height="4" transform="rotate(90 19 11)" fill="black"/>
<rect x="19" y="11" width="2" height="4" transform="rotate(90 19 11)" fill="black"/>
<rect x="19" y="11" width="2" height="4" transform="rotate(90 19 11)" fill="black"/>
<rect x="19" y="11" width="2" height="4" transform="rotate(90 19 11)" fill="black"/>
<rect x="19" y="11" width="2" height="4" transform="rotate(90 19 11)" fill="black"/>
<rect x="13" y="19" width="2" height="4" transform="rotate(-180 13 19)" fill="black"/>
<rect x="13" y="19" width="2" height="4" transform="rotate(-180 13 19)" fill="black"/>
<rect x="13" y="19" width="2" height="4" transform="rotate(-180 13 19)" fill="black"/>
<rect x="13" y="19" width="2" height="4" transform="rotate(-180 13 19)" fill="black"/>
<rect x="13" y="19" width="2" height="4" transform="rotate(-180 13 19)" fill="black"/>
<rect x="13" y="19" width="2" height="4" transform="rotate(-180 13 19)" fill="black"/>
<rect x="13" y="19" width="2" height="4" transform="rotate(-180 13 19)" fill="black"/>
<rect x="5" y="13" width="2" height="4" transform="rotate(-90 5 13)" fill="black"/>
<rect x="5" y="13" width="2" height="4" transform="rotate(-90 5 13)" fill="black"/>
<rect x="5" y="13" width="2" height="4" transform="rotate(-90 5 13)" fill="black"/>
<rect x="5" y="13" width="2" height="4" transform="rotate(-90 5 13)" fill="black"/>
<rect x="5" y="13" width="2" height="4" transform="rotate(-90 5 13)" fill="black"/>
<rect x="5" y="13" width="2" height="4" transform="rotate(-90 5 13)" fill="black"/>
<rect x="5" y="13" width="2" height="4" transform="rotate(-90 5 13)" fill="black"/>
<rect x="11" y="11" width="2" height="2" fill="black"/>
</svg>
